<?xml version="1.0" standalone="no"?>
<!DOCTYPE svg PUBLIC "-//W3C//DTD SVG 20010904//EN"
 "http://www.w3.org/TR/2001/REC-SVG-20010904/DTD/svg10.dtd">
<svg version="1.0" xmlns="http://www.w3.org/2000/svg"
 width="261.000000pt" height="234.000000pt" viewBox="0 0 261.000000 234.000000"
 preserveAspectRatio="xMidYMid meet">
<metadata>
Created by potrace 1.10, written by Peter Selinger 2001-2011
</metadata>
<g transform="translate(0.000000,234.000000) scale(0.100000,-0.100000)"
fill="#000000" stroke="none">
<path d="M1105 2211 c-71 -35 -82 -44 -119 -93 -36 -48 -55 -112 -57 -193 -1
-36 -7 -66 -13 -68 -6 -2 -38 -5 -71 -6 -102 -4 -96 23 -96 -423 -1 -422 0
-424 59 -467 43 -30 61 -32 303 -34 l224 -2 3 -42 c5 -61 -18 -73 -142 -72
-88 0 -101 -2 -122 -22 -28 -26 -32 -70 -7 -90 21 -18 693 -26 736 -10 37 14
52 54 31 86 -21 33 -37 37 -142 36 -51 -1 -101 3 -112 9 -24 13 -38 89 -19
101 8 5 92 8 187 8 179 1 198 4 247 49 45 41 46 43 46 447 0 296 -3 389 -13
404 -11 18 -23 21 -80 21 -38 0 -70 5 -74 11 -3 6 -10 45 -15 86 -9 84 -42
164 -85 207 -16 16 -58 42 -92 59 -59 27 -70 29 -140 24 -43 -3 -90 -12 -107
-21 -38 -20 -59 -20 -91 1 -17 10 -53 18 -102 20 -70 4 -83 1 -137 -26z m223
-13 c37 -11 39 -17 12 -41 -16 -13 -28 -15 -65 -8 -142 27 -254 -71 -255 -221
l0 -68 -34 0 -33 0 4 68 c5 86 27 145 71 194 75 83 185 111 300 76z m367 -22
c96 -57 134 -132 135 -264 l0 -93 93 2 92 2 3 -368 c1 -232 -2 -381 -8 -406
-7 -25 -23 -48 -47 -66 l-36 -28 -533 0 c-523 0 -533 0 -561 21 -62 46 -63 51
-63 469 l0 380 254 -2 254 -2 4 97 c3 84 8 104 33 151 74 135 248 184 380 107z
m-407 -61 c3 -3 -2 -27 -12 -53 -9 -26 -20 -81 -23 -122 -3 -41 -10 -78 -16
-81 -11 -8 -156 -11 -178 -4 -9 3 -15 14 -13 28 1 12 3 43 3 69 2 90 99 178
190 172 23 -1 46 -5 49 -9z m242 -1248 c0 -29 5 -58 12 -65 8 -8 52 -12 134
-12 130 0 137 -3 146 -52 l5 -28 -378 0 -379 0 0 24 c0 48 21 56 150 56 140 0
150 5 150 81 l0 49 80 0 80 0 0 -53z"/>
<path d="M1503 2149 c-58 -14 -127 -77 -147 -136 -9 -26 -16 -79 -16 -120 l0
-73 215 0 215 0 0 85 c0 104 -28 170 -88 209 -30 21 -112 48 -132 45 -3 -1
-24 -5 -47 -10z m138 -47 c47 -19 87 -76 94 -136 4 -30 3 -67 -2 -83 -9 -26
-13 -28 -74 -31 -35 -2 -78 -1 -94 2 -30 6 -31 7 -33 74 -3 68 -16 127 -34
149 -36 46 53 61 143 25z m-156 -54 c10 -24 20 -76 23 -115 l5 -73 -35 0 -36
0 5 45 c4 27 -1 64 -11 96 -16 48 -16 52 0 70 24 27 30 24 49 -23z m-71 -75
c4 -16 5 -47 4 -70 -1 -34 -5 -43 -19 -43 -22 0 -33 46 -24 100 8 46 31 53 39
13z"/>
<path d="M1229 1691 c-24 -19 -24 -21 -25 -233 -1 -220 5 -258 41 -272 9 -3
151 -6 316 -6 l300 0 24 25 c25 24 25 24 25 238 0 202 -1 216 -21 241 l-20 26
-309 0 c-288 0 -309 -1 -331 -19z m633 -28 c16 -15 18 -35 18 -218 0 -181 -2
-204 -18 -218 -26 -23 -576 -25 -607 -1 -19 14 -20 27 -20 219 0 192 1 205 20
219 17 13 66 15 304 16 251 0 287 -2 303 -17z"/>
<path d="M1421 1584 c-19 -24 -21 -40 -21 -144 0 -109 2 -118 23 -138 38 -36
54 -32 197 46 82 45 108 93 75 139 -21 30 -192 123 -226 123 -18 0 -35 -9 -48
-26z m159 -51 c101 -58 122 -82 99 -109 -6 -8 -56 -39 -110 -70 -83 -47 -101
-54 -118 -44 -19 10 -21 20 -21 133 0 123 6 147 37 147 7 0 58 -26 113 -57z"/>
<path d="M1537 1109 c-23 -13 -22 -56 2 -69 25 -13 67 19 58 43 -9 24 -40 37
-60 26z"/>
<path d="M427 480 c-59 -18 -93 -107 -67 -171 9 -22 10 -36 2 -52 -25 -53 -23
-69 19 -109 39 -37 57 -43 123 -39 33 2 91 34 105 59 8 15 11 14 19 -8 14 -37
36 -52 74 -48 29 3 45 18 64 66 1 1 17 -13 37 -33 39 -39 77 -46 114 -20 18
13 22 13 33 0 18 -21 80 -18 110 5 32 25 35 25 79 -2 39 -25 76 -25 104 -1 15
15 19 15 35 0 39 -35 104 -13 114 38 2 12 21 28 48 41 25 12 52 29 59 38 25
30 41 19 40 -27 -1 -24 4 -56 12 -72 14 -29 16 -30 98 -33 97 -3 132 8 163 51
l21 29 26 -29 c69 -79 183 -79 244 -2 21 27 25 43 26 113 2 69 12 111 24 95
26 -35 70 -140 73 -177 7 -63 32 -87 86 -83 24 1 49 43 50 83 0 18 22 76 50
131 36 72 47 104 42 123 -12 47 -91 54 -125 11 -23 -29 -47 -29 -65 -2 -21 32
-66 41 -106 21 -21 -11 -35 -13 -42 -6 -5 5 -31 10 -57 10 -55 0 -59 -7 -59
-117 0 -60 -3 -71 -15 -67 -11 5 -15 23 -15 76 0 59 -3 72 -24 92 -31 32 -85
23 -104 -17 -17 -35 -24 -34 -57 4 -23 28 -33 32 -90 37 -98 7 -133 -3 -148
-41 l-13 -32 -32 32 c-27 27 -42 33 -96 38 -78 8 -123 0 -136 -25 -5 -10 -10
-59 -11 -109 0 -50 -4 -93 -8 -96 -11 -6 -28 29 -54 110 -34 108 -58 131 -122
119 -38 -7 -52 -28 -90 -139 -15 -44 -31 -84 -36 -90 -5 -5 -9 28 -9 80 0 72
-4 97 -20 122 -17 29 -22 31 -57 26 -21 -4 -45 -16 -55 -27 l-18 -21 -18 21
c-41 48 -122 38 -141 -17 l-11 -32 -36 37 c-29 30 -45 38 -83 41 -25 3 -58 0
-74 -5z m123 -46 c17 -15 29 -32 26 -39 -2 -7 0 -17 5 -22 7 -7 0 -15 -20 -23
l-31 -12 30 -28 c25 -23 30 -36 30 -75 0 -38 -5 -52 -29 -76 -24 -23 -38 -29
-74 -29 -54 0 -107 33 -118 73 -6 24 -3 29 23 43 27 14 31 14 47 0 18 -17 71
-22 71 -8 0 5 -17 14 -39 20 -21 7 -50 21 -65 33 -22 17 -26 28 -26 69 0 42 4
52 31 74 42 35 96 35 139 0z m204 -7 c11 -17 32 -54 47 -82 l29 -50 0 83 0 82
40 0 41 0 -1 -165 -2 -165 -33 0 c-31 0 -37 5 -74 68 -21 37 -46 81 -55 97
-15 29 -15 27 -16 -68 l0 -98 -36 3 -36 3 -2 162 -1 163 40 0 c34 0 43 -5 59
-33z m425 -99 c24 -73 47 -148 52 -165 l7 -33 -43 0 c-37 0 -44 3 -49 25 -6
22 -12 25 -50 25 -38 0 -45 -3 -50 -25 -6 -22 -12 -25 -52 -25 -38 0 -44 3
-35 13 6 8 8 16 5 19 -3 3 16 72 43 152 l47 146 41 0 41 0 43 -132z m290 106
c36 -30 48 -80 32 -135 -15 -48 -44 -69 -98 -69 l-43 0 0 -51 0 -50 -35 3
c-20 2 -35 6 -35 11 0 4 0 77 0 162 l0 155 74 0 c65 0 78 -3 105 -26z m274 15
c36 -16 51 -51 45 -104 -3 -25 -2 -48 3 -51 5 -3 9 -27 9 -54 0 -37 -6 -56
-24 -77 -23 -26 -30 -28 -115 -31 l-91 -4 0 166 0 166 75 0 c41 0 85 -5 98
-11z m199 -101 l3 -113 28 -3 c51 -6 59 10 56 122 l-3 101 37 3 37 3 0 -119
c0 -136 -10 -176 -51 -197 -41 -22 -111 -19 -142 5 -36 28 -47 76 -47 203 l0
107 40 0 39 0 3 -112z m321 52 c15 -33 29 -60 31 -60 3 0 17 27 32 60 l27 60
44 0 c32 0 42 -3 37 -12 -5 -7 -9 -20 -9 -28 -1 -9 -22 -53 -48 -99 -40 -70
-47 -91 -47 -137 l0 -54 -35 0 -35 0 0 51 c0 42 -8 66 -46 135 -25 46 -49 97
-54 114 l-9 30 43 0 c43 0 43 0 69 -60z m-1633 -55 c0 -25 -4 -35 -15 -35 -24
0 -28 26 -8 48 24 27 23 27 23 -13z"/>
<path d="M460 361 c0 -10 24 -21 47 -21 13 0 13 3 3 15 -13 16 -50 21 -50 6z"/>
<path d="M1082 312 c-9 -27 -9 -34 4 -39 24 -9 33 9 20 42 l-12 30 -12 -33z"/>
<path d="M1360 345 c0 -21 5 -25 30 -25 18 0 33 6 37 15 7 20 6 21 -34 28 -30
6 -33 4 -33 -18z"/>
<path d="M1640 354 c0 -11 8 -14 32 -12 46 4 49 28 4 28 -26 0 -36 -4 -36 -16z"/>
<path d="M1647 253 c-16 -15 -5 -23 33 -23 29 0 40 4 40 15 0 10 -10 15 -33
15 -19 0 -37 -3 -40 -7z"/>
</g>
</svg>
